<?xml version="1.0" encoding="UTF-8"?><svg id="Capa_2" xmlns="http://www.w3.org/2000/svg" viewBox="0 0 124.72 24.86"><defs><style>.cls-1,.cls-2{fill:#fff;}.cls-2{fill-rule:evenodd;}</style></defs><g id="Capa_1-2"><g><path class="cls-1" d="M11.7,2.7V24.86c1.46,0,2.64-1.21,2.64-3.04V0c-1.46,0-2.64,1.21-2.64,2.7Z"/><path class="cls-1" d="M8.85,17.1s-1.28-.59-1.7-.81c-3.08-1.62-4.02-4.1-4.02-5.33,0-1.52,.39-2.66,1.02-3.58-.2,1.23-.27,2.58,.16,3.74,0,0,.39-.31,1.71-1.2,.76-.51,3.11-1.91,3.11-1.91,1.42-.97,1.33-1.28,1.33-2.21V2.67S4.89,5.94,3.14,7.19c-1.77,1.26-3.14,3.07-3.14,5.88s1.77,4.72,5.46,6.6c1.08,.55,5,2.41,5,2.41v-3.08c0-1.09-.34-1.23-1.61-1.9Z"/><path class="cls-1" d="M22.9,7.19c-1.75-1.25-7.32-4.52-7.32-4.52v3.13c0,.92-.09,1.24,1.33,2.21,0,0,2.35,1.41,3.11,1.91,1.32,.89,2.89,2.12,2.89,4.96,0,1.38-.39,2.28-1.23,3.33,.27-1.45,.42-2.29,.1-3.37-.89,.5-1.59,.82-2.9,1.45l-1.7,.81c-1.27,.67-1.61,.8-1.61,1.89v3.08s3.92-1.86,5-2.41c3.69-1.88,5.46-3.77,5.46-6.6,0-2.8-1.37-4.61-3.14-5.87Z"/><path class="cls-2" d="M33.1,8.12v12.87h2.46V8.12h3.67v-2.13h-3.67V3.44c0-.45,.09-.93,.26-1.1,.18-.17,.48-.25,.9-.25h3.2V0h-3.99c-1.01,0-1.76,.24-2.26,.73-.49,.48-.56,1.23-.56,2.24v3.02h-1.91v2.13h1.89ZM108.82,0h-2.45V20.97h2.45V12.52c0-3.11,1.93-4.74,4.19-4.74,1.96,0,3.38,1.2,3.38,3.98v9.21h2.45V11.52c0-3.59-1.99-5.91-5.23-5.91-2.56,0-4.03,1.55-4.79,2.99h-.05c.05-1.01,.05-1.53,.05-2.21h0V0Zm-17.43,8.76h.05c1.06-1.96,2.97-3.16,5.39-3.16,3.73,0,6.89,2.75,6.89,7.79s-3.16,7.95-6.89,7.95c-2.42,0-4.33-1.2-5.39-3.16h-.05c.05,.63,.05,1.12,.05,1.69v4.98h-2.45V5.99h2.45v1.09c0,.57,0,1.06-.05,1.69Zm9.78,4.63c0-3.4-2.02-5.69-4.91-5.66-2.91,.03-4.85,2.34-4.85,5.64s1.93,5.83,4.85,5.86c2.89,.03,4.91-2.34,4.91-5.83Zm-50.41-3.3c0-1.47-1.34-2.37-3.3-2.37-2.21,0-3.7,1.12-3.92,3.1h-2.45c.22-3.16,2.31-5.23,6.37-5.23s5.83,2.18,5.83,5.2v7.11c0,.6,.24,.93,.79,.93h1.12v2.12h-1.47c-1.8,0-2.75-1.06-2.75-2.64v-.33c-.76,2.23-2.75,3.38-5.15,3.38-2.94,0-5.31-1.61-5.31-4.88,0-3.08,2.18-4.66,5.77-4.66h4.48v-1.74Zm-3.55,3.87h-.87c-2.45,0-3.27,1.23-3.27,2.53,0,1.39,.93,2.75,3.16,2.75,2.45,0,4.6-1.61,4.6-5.26l-3.62-.03Zm8.88-.52c0-4.63,2.78-7.84,7.44-7.84,4.25,0,6.59,2.75,6.92,6.1h-2.56c-.16-2.12-1.69-3.97-4.36-3.97-3.02,0-4.87,2.37-4.87,5.72,0,3.54,2.12,5.77,4.87,5.77s4.11-2.02,4.36-3.68h2.56c-.41,3.05-2.81,5.8-6.92,5.8-4.44,0-7.44-3.13-7.44-7.9Zm18.55,.84h11.71v-1.96c0-3.84-2.97-6.73-7-6.73-4.31,0-7.3,2.94-7.3,7.87s2.94,7.87,7.3,7.87c3.57,0,6.24-2.1,6.86-4.98h-2.64c-.6,1.72-2.21,2.86-4.22,2.86-2.56,0-4.41-1.85-4.71-4.93Zm9.24-2.18h-9.21c.3-2.45,2.07-4.38,4.68-4.38s4.25,1.82,4.52,4.38ZM122.16,.89h2.56V3.45h-2.56V.89Zm.05,5.09h2.45v14.98h-2.45V5.99Z"/></g></g></svg>